<mxfile host="app.diagrams.net" modified="2023-09-07T08:09:15.452Z" agent="Mozilla/5.0 (Windows NT 10.0; Win64; x64) AppleWebKit/537.36 (KHTML, like Gecko) Chrome/116.0.0.0 Safari/537.36 Edg/116.0.1938.69" etag="2JpPDKXNCkagC0evAd9k" version="21.7.2" type="device">
  <diagram name="PÃ¡gina-1" id="FVufQOcQU-Bn6BT3GcNp">
    <mxGraphModel dx="1379" dy="573" grid="1" gridSize="10" guides="1" tooltips="1" connect="1" arrows="1" fold="1" page="1" pageScale="1" pageWidth="827" pageHeight="1169" math="0" shadow="0">
      <root>
        <mxCell id="0" />
        <mxCell id="1" parent="0" />
        <mxCell id="68BgN3hlOAyS0UJK8AbP-1" style="edgeStyle=orthogonalEdgeStyle;rounded=0;orthogonalLoop=1;jettySize=auto;html=1;entryX=1;entryY=0.5;entryDx=0;entryDy=0;" edge="1" parent="1" source="68BgN3hlOAyS0UJK8AbP-5" target="68BgN3hlOAyS0UJK8AbP-6">
          <mxGeometry relative="1" as="geometry" />
        </mxCell>
        <mxCell id="68BgN3hlOAyS0UJK8AbP-2" style="edgeStyle=orthogonalEdgeStyle;rounded=0;orthogonalLoop=1;jettySize=auto;html=1;entryX=1;entryY=0.5;entryDx=0;entryDy=0;" edge="1" parent="1" source="68BgN3hlOAyS0UJK8AbP-5" target="68BgN3hlOAyS0UJK8AbP-7">
          <mxGeometry relative="1" as="geometry" />
        </mxCell>
        <mxCell id="68BgN3hlOAyS0UJK8AbP-3" style="edgeStyle=orthogonalEdgeStyle;rounded=0;orthogonalLoop=1;jettySize=auto;html=1;entryX=1;entryY=0.5;entryDx=0;entryDy=0;" edge="1" parent="1" source="68BgN3hlOAyS0UJK8AbP-5" target="68BgN3hlOAyS0UJK8AbP-14">
          <mxGeometry relative="1" as="geometry">
            <mxPoint x="410" y="530" as="targetPoint" />
          </mxGeometry>
        </mxCell>
        <mxCell id="68BgN3hlOAyS0UJK8AbP-4" value="" style="edgeStyle=orthogonalEdgeStyle;rounded=0;orthogonalLoop=1;jettySize=auto;html=1;" edge="1" parent="1" source="68BgN3hlOAyS0UJK8AbP-5" target="68BgN3hlOAyS0UJK8AbP-38">
          <mxGeometry relative="1" as="geometry" />
        </mxCell>
        <mxCell id="68BgN3hlOAyS0UJK8AbP-5" value="Usuarios" style="whiteSpace=wrap;html=1;align=center;" vertex="1" parent="1">
          <mxGeometry x="460" y="550" width="100" height="40" as="geometry" />
        </mxCell>
        <mxCell id="68BgN3hlOAyS0UJK8AbP-6" value="Nombre" style="ellipse;whiteSpace=wrap;html=1;align=center;" vertex="1" parent="1">
          <mxGeometry x="300" y="550" width="100" height="40" as="geometry" />
        </mxCell>
        <mxCell id="68BgN3hlOAyS0UJK8AbP-7" value="Direccion" style="ellipse;whiteSpace=wrap;html=1;align=center;" vertex="1" parent="1">
          <mxGeometry x="310" y="590" width="100" height="40" as="geometry" />
        </mxCell>
        <mxCell id="68BgN3hlOAyS0UJK8AbP-8" style="edgeStyle=orthogonalEdgeStyle;rounded=0;orthogonalLoop=1;jettySize=auto;html=1;entryX=0.5;entryY=0;entryDx=0;entryDy=0;" edge="1" parent="1" source="68BgN3hlOAyS0UJK8AbP-11" target="68BgN3hlOAyS0UJK8AbP-13">
          <mxGeometry relative="1" as="geometry" />
        </mxCell>
        <mxCell id="68BgN3hlOAyS0UJK8AbP-9" style="edgeStyle=orthogonalEdgeStyle;rounded=0;orthogonalLoop=1;jettySize=auto;html=1;entryX=0.5;entryY=0;entryDx=0;entryDy=0;" edge="1" parent="1" source="68BgN3hlOAyS0UJK8AbP-11" target="68BgN3hlOAyS0UJK8AbP-12">
          <mxGeometry relative="1" as="geometry" />
        </mxCell>
        <mxCell id="68BgN3hlOAyS0UJK8AbP-10" value="" style="edgeStyle=orthogonalEdgeStyle;rounded=0;orthogonalLoop=1;jettySize=auto;html=1;" edge="1" parent="1" source="68BgN3hlOAyS0UJK8AbP-11" target="68BgN3hlOAyS0UJK8AbP-55">
          <mxGeometry relative="1" as="geometry" />
        </mxCell>
        <mxCell id="68BgN3hlOAyS0UJK8AbP-11" value="Editorial" style="whiteSpace=wrap;html=1;align=center;" vertex="1" parent="1">
          <mxGeometry x="1040" y="340" width="100" height="40" as="geometry" />
        </mxCell>
        <mxCell id="68BgN3hlOAyS0UJK8AbP-12" value="Nombre&lt;br&gt;" style="ellipse;whiteSpace=wrap;html=1;align=center;" vertex="1" parent="1">
          <mxGeometry x="980" y="410" width="100" height="40" as="geometry" />
        </mxCell>
        <mxCell id="68BgN3hlOAyS0UJK8AbP-13" value="NIT" style="ellipse;whiteSpace=wrap;html=1;align=center;fontStyle=4;" vertex="1" parent="1">
          <mxGeometry x="1110" y="410" width="100" height="40" as="geometry" />
        </mxCell>
        <mxCell id="68BgN3hlOAyS0UJK8AbP-14" value="ID" style="ellipse;whiteSpace=wrap;html=1;align=center;fontStyle=4;" vertex="1" parent="1">
          <mxGeometry x="310" y="510" width="100" height="40" as="geometry" />
        </mxCell>
        <mxCell id="68BgN3hlOAyS0UJK8AbP-15" style="edgeStyle=orthogonalEdgeStyle;rounded=0;orthogonalLoop=1;jettySize=auto;html=1;entryX=1;entryY=0.5;entryDx=0;entryDy=0;" edge="1" parent="1" source="68BgN3hlOAyS0UJK8AbP-18" target="68BgN3hlOAyS0UJK8AbP-21">
          <mxGeometry relative="1" as="geometry" />
        </mxCell>
        <mxCell id="68BgN3hlOAyS0UJK8AbP-16" value="" style="edgeStyle=orthogonalEdgeStyle;rounded=0;orthogonalLoop=1;jettySize=auto;html=1;" edge="1" parent="1" source="68BgN3hlOAyS0UJK8AbP-18" target="68BgN3hlOAyS0UJK8AbP-22">
          <mxGeometry relative="1" as="geometry" />
        </mxCell>
        <mxCell id="68BgN3hlOAyS0UJK8AbP-17" value="" style="edgeStyle=orthogonalEdgeStyle;rounded=0;orthogonalLoop=1;jettySize=auto;html=1;" edge="1" parent="1" source="68BgN3hlOAyS0UJK8AbP-18" target="68BgN3hlOAyS0UJK8AbP-20">
          <mxGeometry relative="1" as="geometry" />
        </mxCell>
        <mxCell id="68BgN3hlOAyS0UJK8AbP-18" value="Bibliotecas" style="whiteSpace=wrap;html=1;align=center;" vertex="1" parent="1">
          <mxGeometry x="720" y="170" width="100" height="40" as="geometry" />
        </mxCell>
        <mxCell id="68BgN3hlOAyS0UJK8AbP-19" value="" style="edgeStyle=orthogonalEdgeStyle;rounded=0;orthogonalLoop=1;jettySize=auto;html=1;" edge="1" parent="1" source="68BgN3hlOAyS0UJK8AbP-20" target="68BgN3hlOAyS0UJK8AbP-27">
          <mxGeometry relative="1" as="geometry" />
        </mxCell>
        <mxCell id="68BgN3hlOAyS0UJK8AbP-20" value="Contiene" style="shape=rhombus;perimeter=rhombusPerimeter;whiteSpace=wrap;html=1;align=center;" vertex="1" parent="1">
          <mxGeometry x="710" y="250" width="120" height="60" as="geometry" />
        </mxCell>
        <mxCell id="68BgN3hlOAyS0UJK8AbP-21" value="NIT" style="ellipse;whiteSpace=wrap;html=1;align=center;fontStyle=4;" vertex="1" parent="1">
          <mxGeometry x="584" y="170" width="100" height="40" as="geometry" />
        </mxCell>
        <mxCell id="68BgN3hlOAyS0UJK8AbP-22" value="Nombre" style="ellipse;whiteSpace=wrap;html=1;align=center;" vertex="1" parent="1">
          <mxGeometry x="860" y="170" width="100" height="40" as="geometry" />
        </mxCell>
        <mxCell id="68BgN3hlOAyS0UJK8AbP-23" style="edgeStyle=orthogonalEdgeStyle;rounded=0;orthogonalLoop=1;jettySize=auto;html=1;entryX=1;entryY=0.5;entryDx=0;entryDy=0;" edge="1" parent="1" source="68BgN3hlOAyS0UJK8AbP-27" target="68BgN3hlOAyS0UJK8AbP-35">
          <mxGeometry relative="1" as="geometry" />
        </mxCell>
        <mxCell id="68BgN3hlOAyS0UJK8AbP-24" style="edgeStyle=orthogonalEdgeStyle;rounded=0;orthogonalLoop=1;jettySize=auto;html=1;entryX=1;entryY=0.5;entryDx=0;entryDy=0;" edge="1" parent="1" source="68BgN3hlOAyS0UJK8AbP-27" target="68BgN3hlOAyS0UJK8AbP-36">
          <mxGeometry relative="1" as="geometry" />
        </mxCell>
        <mxCell id="68BgN3hlOAyS0UJK8AbP-25" style="edgeStyle=orthogonalEdgeStyle;rounded=0;orthogonalLoop=1;jettySize=auto;html=1;entryX=1;entryY=0.5;entryDx=0;entryDy=0;" edge="1" parent="1" source="68BgN3hlOAyS0UJK8AbP-27" target="68BgN3hlOAyS0UJK8AbP-34">
          <mxGeometry relative="1" as="geometry" />
        </mxCell>
        <mxCell id="68BgN3hlOAyS0UJK8AbP-26" style="edgeStyle=orthogonalEdgeStyle;rounded=0;orthogonalLoop=1;jettySize=auto;html=1;entryX=1;entryY=0.5;entryDx=0;entryDy=0;" edge="1" parent="1" source="68BgN3hlOAyS0UJK8AbP-27" target="68BgN3hlOAyS0UJK8AbP-44">
          <mxGeometry relative="1" as="geometry" />
        </mxCell>
        <mxCell id="68BgN3hlOAyS0UJK8AbP-27" value="Libros" style="whiteSpace=wrap;html=1;align=center;" vertex="1" parent="1">
          <mxGeometry x="720" y="340" width="100" height="40" as="geometry" />
        </mxCell>
        <mxCell id="68BgN3hlOAyS0UJK8AbP-28" value="" style="edgeStyle=orthogonalEdgeStyle;rounded=0;orthogonalLoop=1;jettySize=auto;html=1;" edge="1" parent="1" source="68BgN3hlOAyS0UJK8AbP-31" target="68BgN3hlOAyS0UJK8AbP-33">
          <mxGeometry relative="1" as="geometry" />
        </mxCell>
        <mxCell id="68BgN3hlOAyS0UJK8AbP-29" value="" style="edgeStyle=orthogonalEdgeStyle;rounded=0;orthogonalLoop=1;jettySize=auto;html=1;" edge="1" parent="1" source="68BgN3hlOAyS0UJK8AbP-31" target="68BgN3hlOAyS0UJK8AbP-53">
          <mxGeometry relative="1" as="geometry" />
        </mxCell>
        <mxCell id="68BgN3hlOAyS0UJK8AbP-30" value="" style="edgeStyle=orthogonalEdgeStyle;rounded=0;orthogonalLoop=1;jettySize=auto;html=1;" edge="1" parent="1" source="68BgN3hlOAyS0UJK8AbP-31" target="68BgN3hlOAyS0UJK8AbP-52">
          <mxGeometry relative="1" as="geometry" />
        </mxCell>
        <mxCell id="68BgN3hlOAyS0UJK8AbP-31" value="Autores" style="whiteSpace=wrap;html=1;align=center;" vertex="1" parent="1">
          <mxGeometry x="1360" y="340" width="100" height="40" as="geometry" />
        </mxCell>
        <mxCell id="68BgN3hlOAyS0UJK8AbP-32" style="edgeStyle=orthogonalEdgeStyle;rounded=0;orthogonalLoop=1;jettySize=auto;html=1;entryX=1;entryY=0.5;entryDx=0;entryDy=0;" edge="1" parent="1" source="68BgN3hlOAyS0UJK8AbP-33" target="68BgN3hlOAyS0UJK8AbP-11">
          <mxGeometry relative="1" as="geometry" />
        </mxCell>
        <mxCell id="68BgN3hlOAyS0UJK8AbP-33" value="Envia" style="shape=rhombus;perimeter=rhombusPerimeter;whiteSpace=wrap;html=1;align=center;" vertex="1" parent="1">
          <mxGeometry x="1190" y="330" width="120" height="60" as="geometry" />
        </mxCell>
        <mxCell id="68BgN3hlOAyS0UJK8AbP-34" value="Paginas" style="ellipse;whiteSpace=wrap;html=1;align=center;" vertex="1" parent="1">
          <mxGeometry x="540.5" y="380" width="100" height="40" as="geometry" />
        </mxCell>
        <mxCell id="68BgN3hlOAyS0UJK8AbP-35" value="Titulo" style="ellipse;whiteSpace=wrap;html=1;align=center;" vertex="1" parent="1">
          <mxGeometry x="526.5" y="340" width="100" height="40" as="geometry" />
        </mxCell>
        <mxCell id="68BgN3hlOAyS0UJK8AbP-36" value="Codigo" style="ellipse;whiteSpace=wrap;html=1;align=center;fontStyle=4;" vertex="1" parent="1">
          <mxGeometry x="540.5" y="300" width="100" height="40" as="geometry" />
        </mxCell>
        <mxCell id="68BgN3hlOAyS0UJK8AbP-37" value="" style="edgeStyle=orthogonalEdgeStyle;rounded=0;orthogonalLoop=1;jettySize=auto;html=1;entryX=0;entryY=0.5;entryDx=0;entryDy=0;" edge="1" parent="1" source="68BgN3hlOAyS0UJK8AbP-38" target="68BgN3hlOAyS0UJK8AbP-42">
          <mxGeometry relative="1" as="geometry">
            <mxPoint x="720" y="570" as="targetPoint" />
          </mxGeometry>
        </mxCell>
        <mxCell id="68BgN3hlOAyS0UJK8AbP-38" value="Realiza" style="shape=rhombus;perimeter=rhombusPerimeter;whiteSpace=wrap;html=1;align=center;" vertex="1" parent="1">
          <mxGeometry x="580" y="540" width="120" height="60" as="geometry" />
        </mxCell>
        <mxCell id="68BgN3hlOAyS0UJK8AbP-39" style="edgeStyle=orthogonalEdgeStyle;rounded=0;orthogonalLoop=1;jettySize=auto;html=1;entryX=0.5;entryY=1;entryDx=0;entryDy=0;" edge="1" parent="1" source="68BgN3hlOAyS0UJK8AbP-42" target="68BgN3hlOAyS0UJK8AbP-27">
          <mxGeometry relative="1" as="geometry" />
        </mxCell>
        <mxCell id="68BgN3hlOAyS0UJK8AbP-40" value="" style="edgeStyle=orthogonalEdgeStyle;rounded=0;orthogonalLoop=1;jettySize=auto;html=1;" edge="1" parent="1" source="68BgN3hlOAyS0UJK8AbP-42" target="68BgN3hlOAyS0UJK8AbP-56">
          <mxGeometry relative="1" as="geometry" />
        </mxCell>
        <mxCell id="68BgN3hlOAyS0UJK8AbP-41" value="" style="edgeStyle=orthogonalEdgeStyle;rounded=0;orthogonalLoop=1;jettySize=auto;html=1;" edge="1" parent="1" source="68BgN3hlOAyS0UJK8AbP-42" target="68BgN3hlOAyS0UJK8AbP-57">
          <mxGeometry relative="1" as="geometry" />
        </mxCell>
        <mxCell id="68BgN3hlOAyS0UJK8AbP-42" value="Prestamo" style="shape=ext;margin=3;double=1;whiteSpace=wrap;html=1;align=center;" vertex="1" parent="1">
          <mxGeometry x="720" y="550" width="100" height="40" as="geometry" />
        </mxCell>
        <mxCell id="68BgN3hlOAyS0UJK8AbP-43" value="" style="edgeStyle=orthogonalEdgeStyle;rounded=0;orthogonalLoop=1;jettySize=auto;html=1;" edge="1" parent="1" source="68BgN3hlOAyS0UJK8AbP-44" target="68BgN3hlOAyS0UJK8AbP-48">
          <mxGeometry relative="1" as="geometry" />
        </mxCell>
        <mxCell id="68BgN3hlOAyS0UJK8AbP-44" value="Tiene" style="shape=rhombus;perimeter=rhombusPerimeter;whiteSpace=wrap;html=1;align=center;" vertex="1" parent="1">
          <mxGeometry x="520.5" y="430" width="120" height="60" as="geometry" />
        </mxCell>
        <mxCell id="68BgN3hlOAyS0UJK8AbP-45" value="" style="edgeStyle=orthogonalEdgeStyle;rounded=0;orthogonalLoop=1;jettySize=auto;html=1;" edge="1" parent="1" source="68BgN3hlOAyS0UJK8AbP-48" target="68BgN3hlOAyS0UJK8AbP-49">
          <mxGeometry relative="1" as="geometry" />
        </mxCell>
        <mxCell id="68BgN3hlOAyS0UJK8AbP-46" value="" style="edgeStyle=orthogonalEdgeStyle;rounded=0;orthogonalLoop=1;jettySize=auto;html=1;" edge="1" parent="1" source="68BgN3hlOAyS0UJK8AbP-48" target="68BgN3hlOAyS0UJK8AbP-50">
          <mxGeometry relative="1" as="geometry" />
        </mxCell>
        <mxCell id="68BgN3hlOAyS0UJK8AbP-47" style="edgeStyle=orthogonalEdgeStyle;rounded=0;orthogonalLoop=1;jettySize=auto;html=1;entryX=0.5;entryY=1;entryDx=0;entryDy=0;" edge="1" parent="1" source="68BgN3hlOAyS0UJK8AbP-48" target="68BgN3hlOAyS0UJK8AbP-51">
          <mxGeometry relative="1" as="geometry" />
        </mxCell>
        <mxCell id="68BgN3hlOAyS0UJK8AbP-48" value="Categoria" style="whiteSpace=wrap;html=1;align=center;" vertex="1" parent="1">
          <mxGeometry x="380" y="440" width="100" height="40" as="geometry" />
        </mxCell>
        <mxCell id="68BgN3hlOAyS0UJK8AbP-49" value="&lt;span style=&quot;border-bottom: 1px dotted&quot;&gt;ID&lt;/span&gt;" style="ellipse;whiteSpace=wrap;html=1;align=center;" vertex="1" parent="1">
          <mxGeometry x="230" y="440" width="100" height="40" as="geometry" />
        </mxCell>
        <mxCell id="68BgN3hlOAyS0UJK8AbP-50" value="Nombre" style="ellipse;whiteSpace=wrap;html=1;align=center;" vertex="1" parent="1">
          <mxGeometry x="426.5" y="360" width="100" height="40" as="geometry" />
        </mxCell>
        <mxCell id="68BgN3hlOAyS0UJK8AbP-51" value="Tiempo de prestamo" style="ellipse;whiteSpace=wrap;html=1;align=center;" vertex="1" parent="1">
          <mxGeometry x="330" y="360" width="100" height="40" as="geometry" />
        </mxCell>
        <mxCell id="68BgN3hlOAyS0UJK8AbP-52" value="ID" style="ellipse;whiteSpace=wrap;html=1;align=center;fontStyle=4;" vertex="1" parent="1">
          <mxGeometry x="1360" y="270" width="100" height="40" as="geometry" />
        </mxCell>
        <mxCell id="68BgN3hlOAyS0UJK8AbP-53" value="Nombre" style="ellipse;whiteSpace=wrap;html=1;align=center;" vertex="1" parent="1">
          <mxGeometry x="1360" y="410" width="100" height="40" as="geometry" />
        </mxCell>
        <mxCell id="68BgN3hlOAyS0UJK8AbP-54" value="" style="edgeStyle=orthogonalEdgeStyle;rounded=0;orthogonalLoop=1;jettySize=auto;html=1;" edge="1" parent="1" source="68BgN3hlOAyS0UJK8AbP-55" target="68BgN3hlOAyS0UJK8AbP-27">
          <mxGeometry relative="1" as="geometry" />
        </mxCell>
        <mxCell id="68BgN3hlOAyS0UJK8AbP-55" value="Publica" style="shape=rhombus;perimeter=rhombusPerimeter;whiteSpace=wrap;html=1;align=center;" vertex="1" parent="1">
          <mxGeometry x="877" y="330" width="120" height="60" as="geometry" />
        </mxCell>
        <mxCell id="68BgN3hlOAyS0UJK8AbP-56" value="ID" style="ellipse;whiteSpace=wrap;html=1;align=center;fontStyle=4;" vertex="1" parent="1">
          <mxGeometry x="850" y="550" width="100" height="40" as="geometry" />
        </mxCell>
        <mxCell id="68BgN3hlOAyS0UJK8AbP-57" value="Fecha de prestamo" style="ellipse;whiteSpace=wrap;html=1;align=center;" vertex="1" parent="1">
          <mxGeometry x="720" y="610" width="100" height="40" as="geometry" />
        </mxCell>
      </root>
    </mxGraphModel>
  </diagram>
</mxfile>
